<svg xmlns="http://www.w3.org/2000/svg" width="1200" height="1175" viewBox="0 0 1200 1175" role="img" aria-labelledby="chart-title chart-desc">
  <title id="chart-title">S=0からの参考合計 Net Profit差</title>
  <desc id="chart-desc">差 = 加工後のNet Profit − S=0のNet Profit（4WF参考合計、USD）</desc>
<style>
    .bg { fill: #ffffff; }
    text { font-family: 'Segoe UI', 'Yu Gothic UI', sans-serif; fill: #111827; font-weight: 400; }
    .title { font-size: 28px; font-weight: 500; }
    .subtitle { font-size: 18px; fill: #374151; }
    .label { font-size: 18px; }
    .axis-label { font-size: 16px; fill: #374151; }
    .value { font-size: 17px; font-weight: 500; paint-order: stroke; stroke: #ffffff; stroke-width: 4px; stroke-linejoin: round; }
    .grid { stroke: #d1d5db; stroke-width: 1; }
    .axis { stroke: #4b5563; stroke-width: 1.5; }
    .ohlc { fill: #2563eb; }
    .real { fill: #0f766e; }
    .negative { fill: #b91c1c; }
    .positive { fill: #047857; }
    .below-target { fill: #64748b; }
    .target-band { fill: #d1fae5; opacity: 0.75; }
    .target-line { stroke: #047857; stroke-width: 3; }
    .warning-line { stroke: #b91c1c; stroke-width: 3; stroke-dasharray: 10 7; }
    .warning-cell { fill: #fecaca; }
    .negative-cell { fill: #fecaca; }
    .point { fill: #0f766e; stroke: #ffffff; stroke-width: 2; }
    .heat-1 { fill: #dbeafe; } .heat-2 { fill: #93c5fd; }
    .heat-3 { fill: #60a5fa; } .heat-4 { fill: #2563eb; }
    .heat-value { font-size: 17px; font-weight: 500; paint-order: stroke; stroke: #ffffff; stroke-width: 4px; stroke-linejoin: round; }
    @media (prefers-color-scheme: dark) {
      .bg { fill: #17191d; }
      text { fill: #f3f4f6; }
      .subtitle, .axis-label { fill: #d1d5db; }
      .value, .heat-value { stroke: #17191d; }
      .grid { stroke: #4b5563; } .axis { stroke: #d1d5db; }
      .ohlc { fill: #60a5fa; } .real { fill: #34d399; }
      .negative { fill: #f87171; } .positive { fill: #34d399; }
      .below-target { fill: #94a3b8; }
      .target-band { fill: #14532d; opacity: 0.7; }
      .target-line { stroke: #34d399; }
      .warning-line { stroke: #f87171; }
      .warning-cell, .negative-cell { fill: #7f1d1d; }
      .point { fill: #34d399; stroke: #17191d; }
      .heat-1 { fill: #1e3a5f; } .heat-2 { fill: #1d4f7a; }
      .heat-3 { fill: #246b9e; } .heat-4 { fill: #3182bd; }
    }
  </style>
  <rect class="bg" x="0" y="0" width="1200" height="1175" />
<text class="title" x="30" y="42">S=0からの参考合計 Net Profit差</text>
<text class="subtitle" x="30" y="78">差 = 加工後のNet Profit − S=0のNet Profit（4WF参考合計、USD）</text>
<text class="subtitle" x="30" y="112">緑:S=2　灰:S=5　紫:S=10</text>
<style>.stress10{fill:#7c3aed}@media(prefers-color-scheme:dark){.stress10{fill:#c4b5fd}}</style>
<line class="grid" x1="290.0" y1="140" x2="290.0" y2="1070"/>
<text class="axis-label" x="290.0" y="1100" text-anchor="middle">-215.3</text>
<line class="grid" x1="446.0" y1="140" x2="446.0" y2="1070"/>
<text class="axis-label" x="446.0" y="1100" text-anchor="middle">-158.8</text>
<line class="grid" x1="602.0" y1="140" x2="602.0" y2="1070"/>
<text class="axis-label" x="602.0" y="1100" text-anchor="middle">-102.3</text>
<line class="grid" x1="758.0" y1="140" x2="758.0" y2="1070"/>
<text class="axis-label" x="758.0" y="1100" text-anchor="middle">-45.8</text>
<line class="grid" x1="914.0" y1="140" x2="914.0" y2="1070"/>
<text class="axis-label" x="914.0" y="1100" text-anchor="middle">10.7</text>
<line class="grid" x1="1070.0" y1="140" x2="1070.0" y2="1070"/>
<text class="axis-label" x="1070.0" y="1100" text-anchor="middle">67.1</text>
<line class="axis" x1="884.6" y1="140" x2="884.6" y2="1070"/>
<text class="label" x="25" y="204">xau_sr_scalp_h1</text>
<rect class="real" x="859.4" y="158" width="25.2" height="19"/>
<text class="value" x="892.6" y="174">-9.12</text>
<rect class="below-target" x="847.6" y="186" width="36.9" height="19"/>
<text class="value" x="892.6" y="202">-13.38</text>
<rect class="stress10" x="791.9" y="214" width="92.7" height="19"/>
<text class="value" x="892.6" y="230">-33.57</text>
<text class="label" x="25" y="334">xau_h1_c5</text>
<rect class="real" x="781.6" y="288" width="103.0" height="19"/>
<text class="value" x="892.6" y="304">-37.29</text>
<rect class="below-target" x="784.3" y="316" width="100.3" height="19"/>
<text class="value" x="892.6" y="332">-36.33</text>
<rect class="stress10" x="503.8" y="344" width="380.8" height="19"/>
<text class="value" x="892.6" y="360">-137.91</text>
<text class="label" x="25" y="464">daily_l</text>
<rect class="real" x="633.4" y="418" width="251.2" height="19"/>
<text class="value" x="892.6" y="434">-90.96</text>
<rect class="below-target" x="321.2" y="446" width="563.4" height="19"/>
<text class="value" x="892.6" y="462">-204.04</text>
<rect class="stress10" x="629.7" y="474" width="254.9" height="19"/>
<text class="value" x="892.6" y="490">-92.32</text>
<text class="label" x="25" y="594">e</text>
<rect class="real" x="878.3" y="548" width="6.3" height="19"/>
<text class="value" x="892.6" y="564">-2.28</text>
<rect class="below-target" x="884.6" y="576" width="7.6" height="19"/>
<text class="value" x="900.2" y="592">2.76</text>
<rect class="stress10" x="878.7" y="604" width="5.9" height="19"/>
<text class="value" x="892.6" y="620">-2.13</text>
<text class="label" x="25" y="724">goldtradepro_a</text>
<rect class="real" x="884.6" y="678" width="2.5" height="19"/>
<text class="value" x="895.1" y="694">0.90</text>
<rect class="below-target" x="884.6" y="706" width="3.3" height="19"/>
<text class="value" x="895.9" y="722">1.19</text>
<rect class="stress10" x="884.2" y="734" width="0.7" height="19"/>
<text class="value" x="892.6" y="750">-0.15</text>
<text class="label" x="25" y="854">mt5_longterm_e</text>
<rect class="real" x="884.6" y="808" width="5.1" height="19"/>
<text class="value" x="897.7" y="824">1.84</text>
<rect class="below-target" x="763.8" y="836" width="120.8" height="19"/>
<text class="value" x="892.6" y="852">-43.74</text>
<rect class="stress10" x="884.6" y="864" width="60.6" height="19"/>
<text class="value" x="953.2" y="880">21.95</text>
<text class="label" x="25" y="984">mt5_longterm_j</text>
<rect class="real" x="864.4" y="938" width="20.2" height="19"/>
<text class="value" x="892.6" y="954">-7.33</text>
<rect class="below-target" x="773.4" y="966" width="111.2" height="19"/>
<text class="value" x="892.6" y="982">-40.27</text>
<rect class="stress10" x="751.8" y="994" width="132.8" height="19"/>
<text class="value" x="892.6" y="1010">-48.08</text>
<text class="subtitle" x="30" y="1144">単位：USD　各戦略の採用固定ロットを維持。全戦略が同一リスクではありません。</text>
</svg>
