<svg xmlns="http://www.w3.org/2000/svg" width="1140" height="560" viewBox="0 0 1140 560" role="img" aria-labelledby="chart-title chart-desc">
  <title id="chart-title">EA・WF別 Net Profit推移</title>
  <desc id="chart-desc">3EAそれぞれについてWF1からWF4のNet ProfitをS=0、2、5、10で比較した小分割グラフ。</desc>
  <style>
    .chart-background { fill: #ffffff; }
    text { font-family: 'Segoe UI', 'Yu Gothic UI', sans-serif; fill: #111827; font-weight: 400; }
    .title { font-size: 24px; font-weight: 500; }
    .subtitle { font-size: 16px; fill: #374151; }
    .panel-title { font-size: 18px; font-weight: 500; }
    .axis-label { font-size: 15px; fill: #374151; }
    .value-label { font-size: 14px; font-weight: 500; paint-order: stroke; stroke: #ffffff; stroke-width: 4px; stroke-linejoin: round; }
    .legend-label { font-size: 15px; font-weight: 500; }
    .axis { stroke: #4b5563; stroke-width: 1.4; }
    .grid { stroke: #cbd0d7; stroke-width: 1; }
    .panel { fill: none; stroke: #aeb5bf; stroke-width: 1.2; }
    .line { fill: none; stroke-width: 3; }
    .mark { stroke-width: 2.5; fill: #ffffff; }
    .series-1 { stroke: #2463a9; }
    .series-2 { stroke: #b25b22; }
    .series-3 { stroke: #2d8062; }
    .series-4 { stroke: #8156a8; }
    @media (prefers-color-scheme: dark) {
      .chart-background { fill: #17191d; }
      text { fill: #f3f4f6; } .subtitle, .axis-label { fill: #d1d5db; }
      .value-label { stroke: #17191d; }
      .axis { stroke: #c5cad1; } .grid, .panel { stroke: #555c66; } .mark { fill: #17191d; }
      .series-1 { stroke: #6da9e5; } .series-2 { stroke: #e59a66; }
      .series-3 { stroke: #70c3a3; } .series-4 { stroke: #b99adb; }
    }
  </style>
  <rect class="chart-background" x="0" y="0" width="1140" height="560" />
  <text class="title" x="60" y="35">EA・WF別 Net Profit推移</text>
  <text class="subtitle" x="60" y="59">各パネルは独立した縦軸。線はWF、横軸は片道stress points</text>
  <line class="line series-1" x1="90" y1="86" x2="118" y2="86" />
  <circle class="mark series-1" cx="104.0" cy="86.0" r="5.5" />
  <text class="legend-label" x="128" y="90">WF1</text>
  <line class="line series-2" x1="265" y1="86" x2="293" y2="86" />
  <rect class="mark series-2" x="273.5" y="80.5" width="11" height="11" />
  <text class="legend-label" x="303" y="90">WF2</text>
  <line class="line series-3" x1="440" y1="86" x2="468" y2="86" />
  <polygon class="mark series-3" points="454.0,79.0 447.5,91.5 460.5,91.5" />
  <text class="legend-label" x="478" y="90">WF3</text>
  <line class="line series-4" x1="615" y1="86" x2="643" y2="86" />
  <polygon class="mark series-4" points="629.0,79.0 622.0,86.0 629.0,93.0 636.0,86.0" />
  <text class="legend-label" x="653" y="90">WF4</text>
  <rect class="panel" x="60" y="90" width="325" height="412" />
  <text class="panel-title" x="222.5" y="110" text-anchor="middle">QQ</text>
  <line class="grid" x1="108" y1="490.0" x2="371" y2="490.0" />
  <text class="axis-label" x="101" y="494.0" text-anchor="end">-2</text>
  <line class="grid" x1="108" y1="397.5" x2="371" y2="397.5" />
  <text class="axis-label" x="101" y="401.5" text-anchor="end">110</text>
  <line class="grid" x1="108" y1="305.0" x2="371" y2="305.0" />
  <text class="axis-label" x="101" y="309.0" text-anchor="end">222</text>
  <line class="grid" x1="108" y1="212.5" x2="371" y2="212.5" />
  <text class="axis-label" x="101" y="216.5" text-anchor="end">334</text>
  <line class="grid" x1="108" y1="120.0" x2="371" y2="120.0" />
  <text class="axis-label" x="101" y="124.0" text-anchor="end">446</text>
  <line class="axis" x1="108" y1="488.2" x2="371" y2="488.2" />
  <text class="axis-label" x="108.0" y="515" text-anchor="middle">0</text>
  <text class="axis-label" x="195.7" y="515" text-anchor="middle">2</text>
  <text class="axis-label" x="283.3" y="515" text-anchor="middle">5</text>
  <text class="axis-label" x="371.0" y="515" text-anchor="middle">10</text>
  <path class="line series-1" d="M 108.0 443.7 L 195.7 446.5 L 283.3 442.0 L 371.0 449.5" />
  <circle class="mark series-1" cx="108.0" cy="443.7" r="5.5" />
  <circle class="mark series-1" cx="195.7" cy="446.5" r="5.5" />
  <circle class="mark series-1" cx="283.3" cy="442.0" r="5.5" />
  <circle class="mark series-1" cx="371.0" cy="449.5" r="5.5" />
  <path class="line series-2" d="M 108.0 312.2 L 195.7 314.7 L 283.3 318.3 L 371.0 329.1" />
  <rect class="mark series-2" x="102.5" y="306.7" width="11" height="11" />
  <rect class="mark series-2" x="190.2" y="309.2" width="11" height="11" />
  <rect class="mark series-2" x="277.8" y="312.8" width="11" height="11" />
  <rect class="mark series-2" x="365.5" y="323.6" width="11" height="11" />
  <path class="line series-3" d="M 108.0 160.5 L 195.7 164.0 L 283.3 172.2 L 371.0 163.0" />
  <polygon class="mark series-3" points="108.0,153.5 101.5,166.0 114.5,166.0" />
  <polygon class="mark series-3" points="195.7,157.0 189.2,169.5 202.2,169.5" />
  <polygon class="mark series-3" points="283.3,165.2 276.8,177.7 289.8,177.7" />
  <polygon class="mark series-3" points="371.0,156.0 364.5,168.5 377.5,168.5" />
  <path class="line series-4" d="M 108.0 189.4 L 195.7 182.3 L 283.3 188.0 L 371.0 196.2" />
  <polygon class="mark series-4" points="108.0,182.4 101.0,189.4 108.0,196.4 115.0,189.4" />
  <polygon class="mark series-4" points="195.7,175.3 188.7,182.3 195.7,189.3 202.7,182.3" />
  <polygon class="mark series-4" points="283.3,181.0 276.3,188.0 283.3,195.0 290.3,188.0" />
  <polygon class="mark series-4" points="371.0,189.2 364.0,196.2 371.0,203.2 378.0,196.2" />
  <rect class="panel" x="420" y="90" width="325" height="412" />
  <text class="panel-title" x="582.5" y="110" text-anchor="middle">Smart Gold Hunter</text>
  <line class="grid" x1="468" y1="490.0" x2="731" y2="490.0" />
  <text class="axis-label" x="461" y="494.0" text-anchor="end">-185</text>
  <line class="grid" x1="468" y1="397.5" x2="731" y2="397.5" />
  <text class="axis-label" x="461" y="401.5" text-anchor="end">-101</text>
  <line class="grid" x1="468" y1="305.0" x2="731" y2="305.0" />
  <text class="axis-label" x="461" y="309.0" text-anchor="end">-17</text>
  <line class="grid" x1="468" y1="212.5" x2="731" y2="212.5" />
  <text class="axis-label" x="461" y="216.5" text-anchor="end">67</text>
  <line class="grid" x1="468" y1="120.0" x2="731" y2="120.0" />
  <text class="axis-label" x="461" y="124.0" text-anchor="end">150</text>
  <line class="axis" x1="468" y1="286.1" x2="731" y2="286.1" />
  <text class="axis-label" x="468.0" y="515" text-anchor="middle">0</text>
  <text class="axis-label" x="555.7" y="515" text-anchor="middle">2</text>
  <text class="axis-label" x="643.3" y="515" text-anchor="middle">5</text>
  <text class="axis-label" x="731.0" y="515" text-anchor="middle">10</text>
  <path class="line series-1" d="M 468.0 251.8 L 555.7 253.1 L 643.3 255.3 L 731.0 276.0" />
  <circle class="mark series-1" cx="468.0" cy="251.8" r="5.5" />
  <circle class="mark series-1" cx="555.7" cy="253.1" r="5.5" />
  <circle class="mark series-1" cx="643.3" cy="255.3" r="5.5" />
  <circle class="mark series-1" cx="731.0" cy="276.0" r="5.5" />
  <path class="line series-2" d="M 468.0 411.2 L 555.7 411.4 L 643.3 412.5 L 731.0 449.5" />
  <rect class="mark series-2" x="462.5" y="405.7" width="11" height="11" />
  <rect class="mark series-2" x="550.2" y="405.9" width="11" height="11" />
  <rect class="mark series-2" x="637.8" y="407.0" width="11" height="11" />
  <rect class="mark series-2" x="725.5" y="444.0" width="11" height="11" />
  <path class="line series-3" d="M 468.0 160.5 L 555.7 161.0 L 643.3 160.8 L 731.0 163.0" />
  <polygon class="mark series-3" points="468.0,153.5 461.5,166.0 474.5,166.0" />
  <polygon class="mark series-3" points="555.7,154.0 549.2,166.5 562.2,166.5" />
  <polygon class="mark series-3" points="643.3,153.8 636.8,166.3 649.8,166.3" />
  <polygon class="mark series-3" points="731.0,156.0 724.5,168.5 737.5,168.5" />
  <path class="line series-4" d="M 468.0 204.0 L 555.7 213.5 L 643.3 213.2 L 731.0 214.2" />
  <polygon class="mark series-4" points="468.0,197.0 461.0,204.0 468.0,211.0 475.0,204.0" />
  <polygon class="mark series-4" points="555.7,206.5 548.7,213.5 555.7,220.5 562.7,213.5" />
  <polygon class="mark series-4" points="643.3,206.2 636.3,213.2 643.3,220.2 650.3,213.2" />
  <polygon class="mark series-4" points="731.0,207.2 724.0,214.2 731.0,221.2 738.0,214.2" />
  <rect class="panel" x="780" y="90" width="325" height="412" />
  <text class="panel-title" x="942.5" y="110" text-anchor="middle">Wave Rider</text>
  <line class="grid" x1="828" y1="490.0" x2="1091" y2="490.0" />
  <text class="axis-label" x="821" y="494.0" text-anchor="end">0</text>
  <line class="grid" x1="828" y1="397.5" x2="1091" y2="397.5" />
  <text class="axis-label" x="821" y="401.5" text-anchor="end">175</text>
  <line class="grid" x1="828" y1="305.0" x2="1091" y2="305.0" />
  <text class="axis-label" x="821" y="309.0" text-anchor="end">351</text>
  <line class="grid" x1="828" y1="212.5" x2="1091" y2="212.5" />
  <text class="axis-label" x="821" y="216.5" text-anchor="end">526</text>
  <line class="grid" x1="828" y1="120.0" x2="1091" y2="120.0" />
  <text class="axis-label" x="821" y="124.0" text-anchor="end">701</text>
  <text class="axis-label" x="828.0" y="515" text-anchor="middle">0</text>
  <text class="axis-label" x="915.7" y="515" text-anchor="middle">2</text>
  <text class="axis-label" x="1003.3" y="515" text-anchor="middle">5</text>
  <text class="axis-label" x="1091.0" y="515" text-anchor="middle">10</text>
  <path class="line series-1" d="M 828.0 180.0 L 915.7 165.5 L 1003.3 169.7 L 1091.0 160.9" />
  <circle class="mark series-1" cx="828.0" cy="180.0" r="5.5" />
  <circle class="mark series-1" cx="915.7" cy="165.5" r="5.5" />
  <circle class="mark series-1" cx="1003.3" cy="169.7" r="5.5" />
  <circle class="mark series-1" cx="1091.0" cy="160.9" r="5.5" />
  <path class="line series-2" d="M 828.0 171.4 L 915.7 156.6 L 1003.3 146.1 L 1091.0 134.1" />
  <rect class="mark series-2" x="822.5" y="165.9" width="11" height="11" />
  <rect class="mark series-2" x="910.2" y="151.1" width="11" height="11" />
  <rect class="mark series-2" x="997.8" y="140.6" width="11" height="11" />
  <rect class="mark series-2" x="1085.5" y="128.6" width="11" height="11" />
  <path class="line series-3" d="M 828.0 156.1 L 915.7 146.7 L 1003.3 160.2 L 1091.0 153.0" />
  <polygon class="mark series-3" points="828.0,149.1 821.5,161.6 834.5,161.6" />
  <polygon class="mark series-3" points="915.7,139.7 909.2,152.2 922.2,152.2" />
  <polygon class="mark series-3" points="1003.3,153.2 996.8,165.7 1009.8,165.7" />
  <polygon class="mark series-3" points="1091.0,146.0 1084.5,158.5 1097.5,158.5" />
  <path class="line series-4" d="M 828.0 230.4 L 915.7 235.1 L 1003.3 196.1 L 1091.0 186.0" />
  <polygon class="mark series-4" points="828.0,223.4 821.0,230.4 828.0,237.4 835.0,230.4" />
  <polygon class="mark series-4" points="915.7,228.1 908.7,235.1 915.7,242.1 922.7,235.1" />
  <polygon class="mark series-4" points="1003.3,189.1 996.3,196.1 1003.3,203.1 1010.3,196.1" />
  <polygon class="mark series-4" points="1091.0,179.0 1084.0,186.0 1091.0,193.0 1098.0,186.0" />
  <text class="axis-label" x="570" y="545" text-anchor="middle">stress points / side</text>
</svg>
